<?xml version="1.0" encoding="iso-8859-1"?>
<!-- Generator: Adobe Illustrator 19.0.0, SVG Export Plug-In . SVG Version: 6.00 Build 0)  -->
<svg version="1.1" id="Capa_1" xmlns="http://www.w3.org/2000/svg" xmlns:xlink="http://www.w3.org/1999/xlink" x="0px" y="0px"
	 viewBox="0 0 512 512" style="enable-background:new 0 0 512 512;" xml:space="preserve">
<circle style="fill:#74BCE0;" cx="256" cy="256" r="256"/>
<circle style="fill:#97CBE3;" cx="256" cy="207.182" r="207.182"/>
<path style="fill:#E0E0E0;" d="M475.714,173.713v213.744c-17.147,28.599-39.717,53.572-66.299,73.498
	c-42.757,32.057-95.859,51.043-153.412,51.043s-110.665-18.986-153.422-51.043c-26.582-19.937-49.152-44.91-66.299-73.519V173.713
	L475.714,173.713L475.714,173.713z"/>
<path style="fill:#FCFCFC;" d="M475.714,173.713v213.744c-17.147,28.599-39.717,53.572-66.299,73.498L256.003,342.851
	L475.714,173.713z"/>
<path style="fill:#CCCCCC;" d="M256.003,342.851L102.581,460.956c-26.582-19.937-49.152-44.91-66.299-73.519V173.713
	L256.003,342.851z"/>
<circle style="fill:#D84C8B;" cx="98.9" cy="130.518" r="87.767"/>
<path style="fill:#FFFFFF;" d="M62.69,156.927H86.21v-46.113c0-4.179,0.155-8.511,0.155-8.511h-0.309c0,0-1.393,3.095-4.333,5.88
	l-6.654,6.035L59.441,97.506l29.865-28.008h23.366v87.43h23.675v23.211H62.69V156.927z"/>
<g>
</g>
<g>
</g>
<g>
</g>
<g>
</g>
<g>
</g>
<g>
</g>
<g>
</g>
<g>
</g>
<g>
</g>
<g>
</g>
<g>
</g>
<g>
</g>
<g>
</g>
<g>
</g>
<g>
</g>
</svg>
